<svg xmlns="http://www.w3.org/2000/svg" width="256" height="256" viewBox="0 0 100 100"><rect width="100" height="100" rx="20" fill="#2b2d42"></rect><path fill="#d7e2e6" d="M49.01 65.48L49.01 65.48Q49.01 71.24 44.78 74.48Q40.55 77.72 32.54 77.72L32.54 77.72Q29.12 77.72 26.24 77.13Q23.36 76.55 21.34 75.61Q19.31 74.66 18.19 73.44Q17.06 72.23 17.06 70.97L17.06 70.97Q17.06 69.89 17.65 68.90Q18.23 67.91 19.40 67.19L19.40 67.19Q21.83 68.99 25.07 70.38Q28.31 71.78 32.45 71.78L32.45 71.78Q41.81 71.78 41.81 65.48L41.81 65.48Q41.81 60.35 35.60 58.82L35.60 58.82L28.13 56.84Q22.64 55.40 20.12 52.66Q17.60 49.91 17.60 45.59L17.60 45.59Q17.60 43.25 18.55 41.09Q19.49 38.93 21.47 37.31Q23.45 35.69 26.38 34.74Q29.30 33.80 33.26 33.80L33.26 33.80Q39.56 33.80 43.43 35.64Q47.30 37.49 47.30 39.92L47.30 39.92Q47.30 41.09 46.72 41.99Q46.13 42.89 45.14 43.34L45.14 43.34Q43.52 42.26 40.55 41Q37.58 39.74 33.53 39.74L33.53 39.74Q29.48 39.74 27.09 41.27Q24.71 42.80 24.71 45.59L24.71 45.59Q24.71 47.66 26.06 49.10Q27.41 50.54 30.56 51.26L30.56 51.26L36.77 52.79Q42.89 54.32 45.95 57.33Q49.01 60.35 49.01 65.48ZM74.12 77.72L74.12 77.72Q67.82 77.72 63.91 74.93Q59.99 72.14 59.99 65.66L59.99 65.66L59.99 22.91Q60.44 22.73 61.38 22.51Q62.33 22.28 63.41 22.28L63.41 22.28Q67.19 22.28 67.19 25.52L67.19 25.52L67.19 35.87L81.95 35.87Q82.22 36.32 82.49 37.09Q82.76 37.85 82.76 38.75L82.76 38.75Q82.76 41.81 80.06 41.81L80.06 41.81L67.19 41.81L67.19 65.21Q67.19 68.81 69.22 70.30Q71.24 71.78 74.93 71.78L74.93 71.78Q76.46 71.78 78.35 71.24Q80.24 70.70 81.50 69.98L81.50 69.98Q82.04 70.52 82.49 71.33Q82.94 72.14 82.94 73.22L82.94 73.22Q82.94 75.20 80.60 76.46Q78.26 77.72 74.12 77.72Z"></path></svg>